<svg width="50" height="50" viewBox="0 0 50 50" fill="none" xmlns="http://www.w3.org/2000/svg">
<path d="M10.0586 0.198486C6.32812 0.979736 3.24219 3.26489 1.47461 6.55591C0.800781 7.79614 0.361328 9.08521 0.0976562 10.5793C0.0390625 10.9602 0 15.9602 0 25.0227C0 38.636 0 38.8997 0.205078 39.8665C0.742188 42.5227 2.00195 44.8176 3.90625 46.6047C5.66406 48.2551 7.69531 49.3 10.127 49.7883C11.0938 49.9934 11.3574 49.9934 25 49.9934C38.6426 49.9934 38.9062 49.9934 39.873 49.7883C42.5293 49.2512 44.8242 47.9915 46.6113 46.0872C48.2617 44.3293 49.3066 42.2981 49.7949 39.8665C50 38.8997 50 38.636 50 25.0227C50 15.9602 49.9609 10.9602 49.9023 10.5793C49.1992 6.52661 46.8164 3.21606 43.2715 1.38013C42.1387 0.794189 41.2012 0.462158 39.873 0.198486C38.9062 -0.0065918 38.6621 -0.0065918 24.9316 0.00317383C11.3965 0.00317383 10.957 0.0129395 10.0586 0.198486ZM39.502 4.46606C42.5684 5.32544 44.7266 7.50317 45.5273 10.5403L45.752 11.3704V24.9934V38.6165L45.5273 39.4465C44.7168 42.5032 42.5098 44.7102 39.4531 45.5208L38.623 45.7454H25H11.377L10.5469 45.5208C7.49023 44.7102 5.2832 42.5032 4.47266 39.4465L4.24805 38.6165V24.9934V11.3704L4.47266 10.5403C5.3418 7.24927 7.83203 4.94458 11.1621 4.33911C11.7285 4.23169 14.5801 4.21216 25.293 4.22192L38.7207 4.24146L39.502 4.46606Z" fill="#F5F5F5"/>
<path d="M37.3926 8.51882C37.0801 8.64578 36.7285 8.84109 36.5918 8.94851C35.0586 10.1497 34.9805 12.4934 36.4258 13.802C36.9238 14.2512 37.2363 14.4075 37.9492 14.5442C39.375 14.8274 40.7715 14.1145 41.3965 12.7962C41.7578 12.0247 41.7578 10.8137 41.416 10.1009C41.1035 9.48562 40.5078 8.88992 39.8926 8.58718C39.1797 8.23562 38.125 8.20632 37.3926 8.51882Z" fill="#F5F5F5"/>
<path d="M22.7832 12.6399C20.9961 12.9719 18.9355 13.8606 17.5098 14.925C16.5527 15.6379 15.2246 17.0149 14.6289 17.9133C13.6426 19.4075 12.9395 21.1555 12.6465 22.8157C12.4609 23.929 12.4609 26.0579 12.6465 27.1711C13.0762 29.593 14.2188 31.8586 15.918 33.6262C17.793 35.5793 20.2148 36.8879 22.8223 37.3469C23.9355 37.5325 26.0645 37.5325 27.1777 37.3469C32.3242 36.4387 36.4453 32.3176 37.3535 27.1711C37.5391 26.0579 37.5391 23.929 37.3535 22.8157C37.0605 21.1458 36.3574 19.4075 35.3613 17.9133C34.7754 17.0149 33.4375 15.6282 32.5098 14.9348C31.0352 13.8411 28.9941 12.9622 27.1777 12.6399C26.1328 12.4641 23.7793 12.4641 22.7832 12.6399ZM27.002 16.9856C29.9609 17.7473 32.2168 19.9934 33.0176 22.9915C33.1836 23.5969 33.2324 24.0559 33.2324 24.9934C33.2324 25.9309 33.1836 26.3899 33.0176 26.9954C32.2168 29.9934 30 32.2004 27.002 33.011C25.8984 33.3137 24.1016 33.3137 22.998 33.011C20 32.2004 17.7832 29.9934 16.9824 26.9954C16.6895 25.9016 16.6895 24.0852 16.9824 22.9915C18.1738 18.5286 22.627 15.8625 27.002 16.9856Z" fill="#F5F5F5"/>
</svg>
