<svg width="50" height="50" viewBox="0 0 50 50" fill="none" xmlns="http://www.w3.org/2000/svg">
<g clip-path="url(#clip0_65_13)">
<path d="M21.9238 0.146534C20.8105 0.283253 18.9258 0.664112 18.0371 0.93755C16.2109 1.50396 15.4492 1.80669 13.7695 2.627C10.1172 4.39458 6.75781 7.35357 4.21875 11.0059C3.17383 12.5196 1.93359 15.0196 1.32813 16.8458C0.898438 18.1251 0.78125 18.5547 0.527344 19.6973C-0.185547 22.959 -0.185547 27.0411 0.527344 30.3028C0.78125 31.4454 0.898438 31.8751 1.32813 33.1543C1.65039 34.1211 1.97266 34.8829 2.62695 36.2305C4.87305 40.8594 9.14063 45.127 13.7695 47.3731C15.4492 48.1934 16.2109 48.4961 18.0371 49.0626C21.4941 50.1368 26.4844 50.3028 30.3027 49.4727C31.4453 49.2188 31.875 49.1016 33.1543 48.6719C34.9805 48.0665 37.4805 46.8262 38.9941 45.7813C41.709 43.8965 43.8965 41.709 45.7813 38.9942C46.8262 37.4805 48.0664 34.9805 48.6719 33.1543C49.1016 31.8751 49.2188 31.4454 49.4727 30.3028C50.1856 27.0411 50.1856 22.959 49.4727 19.6973C49.2188 18.5547 49.1016 18.1251 48.6719 16.8458C48.0664 15.0196 46.8262 12.5196 45.7813 11.0059C44.4238 9.05279 42.7539 7.21685 41.0156 5.752C39.2578 4.27739 37.3145 3.07622 35.0586 2.07036C34.0527 1.62114 33.3984 1.38677 31.9629 0.93755C31.0352 0.644581 29.1699 0.283253 27.9297 0.136768C26.4453 -0.0292473 23.3887 -0.0194817 21.9238 0.146534ZM27.1484 14.3946C32.8516 15.0294 37.5488 16.4649 41.8066 18.8575C42.6856 19.3555 43.0957 19.7754 43.3203 20.4004C43.8965 22.002 42.4805 23.7989 40.8008 23.6036C40.5078 23.5645 39.9707 23.3594 39.4238 23.086C37.0898 21.8848 36.5723 21.6602 34.7168 20.9961C33.3691 20.5176 32.3047 20.2344 30.1758 19.7657C29.5508 19.629 27.2559 19.3165 26.0254 19.1993C23.6719 18.9649 19.0723 19.0137 16.6992 19.2969C15.1465 19.4727 13.2617 19.7657 12.2559 19.9708C11.6113 20.1075 10.8398 20.2637 10.5469 20.3223C8.80859 20.6641 7.46094 19.6094 7.48047 17.92C7.49023 17.0704 7.97852 16.2305 8.67188 15.879C9.58008 15.42 13.9746 14.629 17.0898 14.3555C17.7637 14.3067 18.4668 14.2383 18.6523 14.2188C19.5508 14.1309 25.9277 14.2579 27.1484 14.3946ZM25.1465 23.0469C28.3691 23.3204 31.25 23.9356 33.9941 24.9317C35.5078 25.4786 37.6953 26.5333 38.4277 27.0606C39.4434 27.793 39.5508 29.2188 38.6621 30.0684C38.2813 30.42 37.5 30.6836 37.0606 30.6153C36.9043 30.586 36.084 30.2247 35.2539 29.8145C34.4238 29.4141 33.6523 29.043 33.5449 28.9942C32.4609 28.5352 30.5176 27.959 28.9063 27.6075C26.4648 27.0704 24.043 26.8555 21.0938 26.9043C18.3105 26.9532 15.5957 27.2657 13.2324 27.793C12.6465 27.92 12.0508 28.0274 11.9238 28.0274C11.2109 28.0274 10.3809 27.4708 10.0977 26.7969C9.7168 25.8887 10.1855 24.6973 11.0938 24.2676C11.8945 23.8868 15.8301 23.2325 18.3594 23.0469C20.957 22.8614 22.9199 22.8614 25.1465 23.0469ZM23.8379 30.6641C26.748 30.8887 29.6875 31.5333 32.0801 32.4708C33.125 32.8711 34.8633 33.7403 35.332 34.0821C36.4746 34.9024 36.1914 36.6016 34.8438 37.002C34.3359 37.1583 34.0039 37.0801 33.0078 36.5528C30.293 35.127 27.1973 34.2774 23.5742 33.9844C22.3633 33.8868 18.9648 33.9454 17.8711 34.0723C16.1523 34.2872 15.4102 34.3946 14.3164 34.629C12.9004 34.9219 12.6563 34.9219 12.1582 34.6387C11.1133 34.043 11.0547 32.5098 12.0508 31.8458C12.4512 31.5821 13.7793 31.2891 16.0352 30.9571C18.623 30.586 21.3965 30.4786 23.8379 30.6641Z" fill="#F5F5F5"/>
</g>
<defs>
<clipPath id="clip0_65_13">
<rect width="50" height="50" fill="white"/>
</clipPath>
</defs>
</svg>
