<svg width="207" height="270" viewBox="0 0 207 270" fill="none" xmlns="http://www.w3.org/2000/svg">
<path d="M105.978 0.737213C99.4533 2.81177 93.1061 9.56888 91.7417 15.8518C91.2672 17.9264 91.0892 38.1384 91.0892 79.5702C91.0892 113 90.9706 140.325 90.8519 140.325C90.674 140.325 89.8435 140.029 88.8944 139.673C80.5896 136.472 65.8783 135.287 56.3871 137.006C30.5237 141.807 9.46522 160.3 2.46549 184.365C-3.34785 204.28 1.33841 228.464 14.2108 245.179C34.2016 271.14 73.234 277.719 103.131 260.234C109.716 256.381 119.444 246.72 123.596 239.963C129.054 231.012 132.376 221.232 133.74 209.971C134.155 206.355 134.393 180.69 134.393 130.426V56.2166L156.4 67.1821C170.103 73.9985 179.594 78.3847 181.493 78.7403C188.077 80.0443 196.026 77.5549 200.831 72.7538C202.195 71.3905 204.153 68.4861 205.161 66.3523C206.763 62.9738 207 61.7883 207 57.6392C206.941 51.6526 205.339 47.2665 201.602 43.1174C198.992 40.213 196.619 38.9682 158.892 20.1194L118.969 0.144501L113.749 0.0259399C110.546 -0.0926208 107.58 0.203766 105.978 0.737213Z" fill="#FFDEC7"/>
</svg>
